<?xml version="1.0" encoding="UTF-8"?>
<svg width="76px" height="17px" viewBox="0 0 76 17" version="1.1" xmlns="http://www.w3.org/2000/svg" xmlns:xlink="http://www.w3.org/1999/xlink">
    <!-- Generator: Sketch 55.2 (78181) - https://sketchapp.com -->
    <title>Combined Shape</title>
    <desc>Created with Sketch.</desc>
    <g id="makers" stroke="none" stroke-width="1" fill="none" fill-rule="evenodd">
        <path d="M65.1140909,0 L75.4474242,0 L75.4474242,17 L65.1140909,17 L65.1140909,0 Z M13.48,4.2 C14.8266734,4.2 15.8933294,4.5899961 16.68,5.37 C17.4666706,6.1500039 17.86,7.3199922 17.86,8.88 L17.86,15 L15.36,15 L15.36,9.2 C15.36,8.266662 15.1533354,7.5633357 14.74,7.09 C14.3266646,6.6166643 13.7333372,6.38 12.96,6.38 C12.1199958,6.38 11.4466692,6.6566639 10.94,7.21 C10.4333308,7.7633361 10.18,8.5533282 10.18,9.58 L10.18,15 L7.68,15 L7.68,9.2 C7.68,8.266662 7.4733354,7.5633357 7.06,7.09 C6.6466646,6.6166643 6.0533372,6.38 5.28,6.38 C4.4266624,6.38 3.7500025,6.6533306 3.25,7.2 C2.7499975,7.7466694 2.5,8.5399948 2.5,9.58 L2.5,15 L1.70530257e-13,15 L1.70530257e-13,4.32 L2.38,4.32 L2.38,5.68 C2.780002,5.2 3.279997,4.8333346 3.88,4.58 C4.480003,4.3266654 5.146663,4.2 5.88,4.2 C6.680004,4.2 7.3899969,4.3499985 8.01,4.65 C8.6300031,4.95 9.1199982,5.3933304 9.48,5.98 C9.9200022,5.4199972 10.4866632,4.9833349 11.18,4.67 C11.8733368,4.3566651 12.6399958,4.2 13.48,4.2 Z M25.14,4.2 C26.7133412,4.2 27.9166625,4.5766629 28.75,5.33 C29.5833375,6.0833371 30,7.2199924 30,8.74 L30,15 L27.64,15 L27.64,13.7 C27.3333318,14.166669 26.8966695,14.5233321 26.33,14.77 C25.7633305,15.0166679 25.080004,15.14 24.28,15.14 C23.479996,15.14 22.780003,15.0033347 22.18,14.73 C21.579997,14.4566653 21.1166683,14.0766691 20.79,13.59 C20.4633317,13.1033309 20.3,12.5533364 20.3,11.94 C20.3,10.9799952 20.6566631,10.2100029 21.37,9.63 C22.0833369,9.0499971 23.206659,8.76 24.74,8.76 L27.5,8.76 L27.5,8.6 C27.5,7.8533296 27.2766689,7.280002 26.83,6.88 C26.3833311,6.479998 25.7200044,6.28 24.84,6.28 C24.239997,6.28 23.6500029,6.3733324 23.07,6.56 C22.4899971,6.7466676 22.000002,7.006665 21.6,7.34 L20.62,5.52 C21.1800028,5.0933312 21.8533294,4.7666678 22.64,4.54 C23.4266706,4.3133322 24.2599956,4.2 25.14,4.2 Z M24.8,13.32 C25.4266698,13.32 25.9833309,13.1766681 26.47,12.89 C26.9566691,12.6033319 27.299999,12.193336 27.5,11.66 L27.5,10.42 L24.92,10.42 C23.4799928,10.42 22.76,10.8933286 22.76,11.84 C22.76,12.2933356 22.9399982,12.653332 23.3,12.92 C23.6600018,13.186668 24.1599968,13.32 24.8,13.32 Z M37.56,10.42 L35.7,12.18 L35.7,15 L33.2,15 L33.2,0.16 L35.7,0.16 L35.7,9.12 L40.88,4.32 L43.88,4.32 L39.42,8.8 L44.3,15 L41.26,15 L37.56,10.42 Z M55.96,9.72 C55.96,9.8933342 55.9466668,10.1399984 55.92,10.46 L47.54,10.46 C47.6866674,11.2466706 48.0699969,11.8699977 48.69,12.33 C49.3100031,12.7900023 50.0799954,13.02 51,13.02 C52.1733392,13.02 53.1399962,12.6333372 53.9,11.86 L55.24,13.4 C54.7599976,13.9733362 54.153337,14.4066652 53.42,14.7 C52.686663,14.9933348 51.8600046,15.14 50.94,15.14 C49.7666608,15.14 48.7333378,14.906669 47.84,14.44 C46.9466622,13.973331 46.2566691,13.3233375 45.77,12.49 C45.2833309,11.6566625 45.04,10.7133386 45.04,9.66 C45.04,8.6199948 45.2766643,7.6833375 45.75,6.85 C46.2233357,6.0166625 46.8799958,5.366669 47.72,4.9 C48.5600042,4.433331 49.5066614,4.2 50.56,4.2 C51.6000052,4.2 52.5299959,4.4299977 53.35,4.89 C54.1700041,5.3500023 54.8099977,5.9966625 55.27,6.83 C55.7300023,7.6633375 55.96,8.6266612 55.96,9.72 Z M50.56,6.2 C49.759996,6.2 49.0833361,6.4366643 48.53,6.91 C47.9766639,7.3833357 47.6400006,8.0133294 47.52,8.8 L53.58,8.8 C53.4733328,8.0266628 53.1466694,7.4000024 52.6,6.92 C52.0533306,6.4399976 51.3733374,6.2 50.56,6.2 Z M60.74,5.88 C61.4600036,4.7599944 62.7266576,4.2 64.54,4.2 L64.54,6.58 C64.3266656,6.5399998 64.1333342,6.52 63.96,6.52 C62.9866618,6.52 62.2266694,6.8033305 61.68,7.37 C61.1333306,7.9366695 60.86,8.753328 60.86,9.82 L60.86,15 L58.36,15 L58.36,4.32 L60.74,4.32 L60.74,5.88 Z M70.06,15.14 C69.193329,15.14 68.3466708,15.0266678 67.52,14.8 C66.6933292,14.5733322 66.0333358,14.2866684 65.54,13.94 L66.5,12.04 C66.9800024,12.3600016 67.5566633,12.6166667 68.23,12.81 C68.9033367,13.0033343 69.5666634,13.1 70.22,13.1 C71.7133408,13.1 72.46,12.7066706 72.46,11.92 C72.46,11.5466648 72.2700019,11.2866674 71.89,11.14 C71.5099981,10.9933326 70.9000042,10.853334 70.06,10.72 C69.1799956,10.586666 68.4633361,10.4333342 67.91,10.26 C67.3566639,10.0866658 66.8766687,9.7833355 66.47,9.35 C66.0633313,8.9166645 65.86,8.3133372 65.86,7.54 C65.86,6.5266616 66.2833291,5.7166697 67.13,5.11 C67.9766709,4.5033303 69.1199928,4.2 70.56,4.2 C71.293337,4.2 72.026663,4.28333333 72.76,4.45 C73.493337,4.61666667 74.093331,4.8399986 74.56,5.12 L73.6,7.02 C72.6933288,6.486664 71.673339,6.22 70.54,6.22 C69.806663,6.22 69.2500019,6.3299989 68.87,6.55 C68.4899981,6.7700011 68.3,7.0599982 68.3,7.42 C68.3,7.820002 68.5033313,8.1033325 68.91,8.27 C69.3166687,8.4366675 69.9466624,8.5933326 70.8,8.74 C71.6533376,8.873334 72.3533306,9.0266658 72.9,9.2 C73.4466694,9.3733342 73.9166647,9.6666646 74.31,10.08 C74.7033353,10.4933354 74.9,11.0799962 74.9,11.84 C74.9,12.840005 74.466671,13.639997 73.6,14.24 C72.733329,14.840003 71.5533408,15.14 70.06,15.14 Z" id="Combined-Shape" fill="#959597"></path>
    </g>
</svg>